<svg width="116" height="20" viewBox="0 0 116 20" fill="none" xmlns="http://www.w3.org/2000/svg">
<path d="M9.99996 1.66675L12.575 6.88341L18.3333 7.72508L14.1666 11.7834L15.15 17.5167L9.99996 14.8084L4.84996 17.5167L5.83329 11.7834L1.66663 7.72508L7.42496 6.88341L9.99996 1.66675Z" fill="#FFB805"/>
<path d="M34 1.66675L36.575 6.88341L42.3333 7.72508L38.1666 11.7834L39.15 17.5167L34 14.8084L28.85 17.5167L29.8333 11.7834L25.6666 7.72508L31.425 6.88341L34 1.66675Z" fill="#FFB805"/>
<path d="M58 1.66675L60.575 6.88341L66.3333 7.72508L62.1666 11.7834L63.15 17.5167L58 14.8084L52.85 17.5167L53.8333 11.7834L49.6666 7.72508L55.425 6.88341L58 1.66675Z" fill="#FFB805"/>
<path d="M82.0001 1.66675L84.5751 6.88341L90.3334 7.72508L86.1667 11.7834L87.1501 17.5167L82.0001 14.8084L76.8501 17.5167L77.8334 11.7834L73.6667 7.72508L79.4251 6.88341L82.0001 1.66675Z" fill="#FFB805"/>
<path d="M106 1.66675L108.575 6.88341L114.333 7.72508L110.167 11.7834L111.15 17.5167L106 14.8084L100.85 17.5167L101.833 11.7834L97.6667 7.72508L103.425 6.88341L106 1.66675Z" fill="#FFB805"/>
</svg>
